<?xml version="1.0" encoding="utf-8"?>
<!-- Generator: Adobe Illustrator 28.1.0, SVG Export Plug-In . SVG Version: 6.00 Build 0)  -->
<svg version="1.1" id="Layer_1" xmlns="http://www.w3.org/2000/svg" xmlns:xlink="http://www.w3.org/1999/xlink" x="0px" y="0px"
	 viewBox="0 0 220 20" style="enable-background:new 0 0 220 20;" xml:space="preserve">
<path id="Combined-Shape" d="M18.9,3.7l7,13.1h-5.8l-1-2.2h-6.5l-1,2.2H5.8l7-13.1C12.8,3.6,18.9,3.6,18.9,3.7z M41.4,3.7v4.1h-6.1
	v9h-5.1v-9h-6.1V3.7H41.4z M15.9,7.4l-1.8,3.9h3.6L15.9,7.4z M44.6,3.7v13.1H60v-4.2H49.7v-9L44.6,3.7L44.6,3.7z M71.9,7.4l1.8,3.9
	h-3.6L71.9,7.4z M61.8,16.8h5.8l1-2.2h6.6l1,2.2H82L75,3.6h-6.1L61.8,16.8z M88.4,7.9c0-1,2-1.3,3.5-1.3c1.6,0,3,0.2,3.5,1.3h5.4
	c-0.5-4.1-4.3-4.6-8.9-4.6S83,4.2,83,7.9c0,3.3,5.1,3.5,8.8,3.7c2.1,0.1,3.7,0.2,3.7,0.8c0,1-2,1.3-3.5,1.3c-1.6,0-3-0.3-3.5-1.3
	h-5.4c0.5,4.1,4.3,4.6,8.9,4.6s8.9-0.9,8.9-4.6c0-3.3-5.1-3.5-8.8-3.7C90,8.6,88.4,8.6,88.4,7.9z M119.4,7.9c0-1,2-1.3,3.5-1.3
	c1.6,0,3,0.2,3.5,1.3h5.4c-0.5-4.1-4.3-4.6-8.9-4.6S114,4.2,114,7.9c0,3.3,5.1,3.5,8.8,3.7c2.1,0.1,3.7,0.2,3.7,0.8
	c0,1-2,1.3-3.5,1.3c-1.6,0-3-0.3-3.5-1.3h-5.4c0.5,4.1,4.3,4.6,8.9,4.6s8.9-0.9,8.9-4.6c0-3.3-5.1-3.5-8.8-3.7
	C121,8.6,119.4,8.6,119.4,7.9z M152.2,9.8c0-5-4-6.4-9-6.4c-4.9,0-9,1.4-9,6.4v1c0,5,4,6.4,9,6.4c0.6,0,1.3,0,1.9-0.1l1.7,2.6h5.4
	l-2.7-3.9c1.7-1,2.7-2.6,2.7-5.1V9.8z M143.2,12.9c-2.1,0-3.9-0.4-3.8-2.6v-0.3c0-2.2,1.7-2.5,3.8-2.6c2.1,0,3.9,0.4,3.8,2.6v0.3
	C147.1,12.4,145.3,12.9,143.2,12.9z M167.9,10.4c0,2.2-1.7,2.5-3.8,2.6c-2.1,0-3.9-0.4-3.8-2.6V3.7h-5.1v7.1c0,5,4,6.4,9,6.4
	c4.9,0,9-1.4,9-6.4V3.7h-5.1v6.7H167.9z M183.8,7.4l1.8,3.9H182L183.8,7.4z M173.7,16.8h5.8l1-2.2h6.6l1,2.2h5.8l-7-13.1h-6.1
	L173.7,16.8z M208.6,10.2c0,1.3-0.8,2.4-2.1,2.4h-5.6V7.8h5.6C207.8,7.8,208.6,8.9,208.6,10.2z M195.8,3.7v13.1h11.7
	c3.6,0,6.3-3,6.2-6.6c0-3.6-2.6-6.6-6.2-6.6L195.8,3.7L195.8,3.7z"/>
</svg>
