<svg width="97" height="52" viewBox="0 0 97 52" fill="none" xmlns="http://www.w3.org/2000/svg">
<path d="M49.8552 52H85.9708L96.5307 41.3958V36.9185H86.5989V41.5922H63.0845L55.8614 48.8188H49.8552V52Z" fill="#403E3C"/>
<path d="M59.787 10.4079H83.3014L90.5638 3.14199H96.5307V0H60.4544L49.8552 10.6042V20.6193L60.4544 31.1843H96.5307V28.0423H90.5638L83.3014 20.7764H59.787V10.4079Z" fill="#403E3C"/>
<path d="M0 0H36.1156L46.7147 10.6042V15.0423H36.7437V10.4079H13.2686L6.00618 3.14199H0V0Z" fill="#403E3C"/>
<path d="M9.97104 41.5921H33.4854L40.7085 48.8187H46.7147V52H10.5991L0 41.3958V31.3807L10.5991 20.7764H46.7147V23.9577H40.7085L33.4854 31.1843H9.97104V41.5921Z" fill="#403E3C"/>
</svg>
