<?xml version="1.0" encoding="utf-8"?>
<!-- Generator: Adobe Illustrator 28.1.0, SVG Export Plug-In . SVG Version: 6.00 Build 0)  -->
<svg version="1.1" id="Layer_1" xmlns="http://www.w3.org/2000/svg" xmlns:xlink="http://www.w3.org/1999/xlink" x="0px" y="0px"
	 viewBox="0 0 180 180" style="enable-background:new 0 0 180 180;" xml:space="preserve">
<path id="Path" d="M179,35v2h-2v-2H179z M175,35v2h-2v-2H175z M171,35v2h-2v-2H171z M167,35v2h-2v-2H167z M163,35v2h-2v-2H163z
	 M159,35v2h-2v-2H159z M155,35v2h-2v-2H155z M151,35v2h-2v-2H151z M147,35v2h-2v-2H147z M143,35v2h-2v-2H143z M139,35v2h-2v-2H139z
	 M135,35v2h-2v-2H135z M131,35v2h-2v-2H131z M127,35v2h-2v-2H127z M123,35v2h-2v-2H123z M119,35v2h-2v-2H119z M115,35v2h-2v-2H115z
	 M111,35v2h-2v-2H111z M107,35v2h-2v-2H107z M103,35v2h-2v-2H103z M99,35v2h-2v-2H99z M95,35v2h-2v-2H95z M91,35v2h-2v-2H91z M87,35
	v2h-2v-2H87z M83,35v2h-2v-2H83z M79,35v2h-2v-2H79z M75,35v2h-2v-2H75z M71,35v2h-2v-2H71z M67,35v2h-2v-2H67z M63,35v2h-2v-2H63z
	 M59,35v2h-2v-2H59z M55,35v2h-2v-2H55z M51,35v2h-2v-2H51z M47,35v2h-2v-2H47z M43,35v2h-2v-2H43z M39,35v2h-2v-2H39z M35,35v2h-2
	v-2H35z M31,35v2h-2v-2H31z M27,35v2h-2v-2H27z M23,35v2h-2v-2H23z M19,35v2h-2v-2H19z M15,35v2h-2v-2H15z M11,35v2H9v-2H11z M7,35
	v2H5v-2H7z M3,35v2H1v-2H3z"/>
</svg>
