<?xml version="1.0" encoding="utf-8"?>
<!-- Generator: Adobe Illustrator 28.1.0, SVG Export Plug-In . SVG Version: 6.00 Build 0)  -->
<svg version="1.1" id="Layer_1" xmlns="http://www.w3.org/2000/svg" xmlns:xlink="http://www.w3.org/1999/xlink" x="0px" y="0px"
	 viewBox="0 0 180 180" style="enable-background:new 0 0 180 180;" xml:space="preserve">
<style type="text/css">
	.st0{fill-rule:evenodd;clip-rule:evenodd;}
</style>
<path id="Combined-Shape" class="st0" d="M175,56v5h-16v-5H175z M21,56v5H5v-5H21z M171,47v5h-16v-5H171z M25,47v5H9v-5H25z M32,38
	v5H13v-5H32z M167,38v5h-19v-5H167z M42,29v5H20v-5H42z M160,29v5h-22v-5H160z M152,20v5h-29v-5H152z M57,20v5H28v-5H57z M80,11v5
	H39v-5H80z M141,11v5h-41v-5H141z M124,2v5H56V2H124z M51.2,160l-7.7,0c-2.3-1.6-4.6-3.2-6.8-5l6.6,0
	C45.9,156.8,48.5,158.5,51.2,160z M143.2,155c-2.2,1.8-4.4,3.4-6.8,5l-7.7,0c2.7-1.5,5.4-3.2,7.9-5L143.2,155z M38.2,151l-6,0
	c-1.7-1.6-3.3-3.3-4.9-5l5.5,0C34.6,147.8,36.4,149.4,38.2,151z M152.6,146c-1.6,1.7-3.2,3.4-4.9,5l-6,0c1.9-1.6,3.7-3.3,5.4-5
	L152.6,146z M29.2,142l-5.2,0c-1.3-1.6-2.5-3.3-3.7-5l4.9,0C26.5,138.7,27.8,140.4,29.2,142z M159.6,137c-1.2,1.7-2.4,3.4-3.7,5
	l-5.2,0c1.4-1.6,2.7-3.3,3.9-5L159.6,137z M22.5,133l-4.7,0c-1-1.6-1.9-3.3-2.8-5l4.5,0C20.5,129.7,21.5,131.4,22.5,133z M164.9,128
	c-0.9,1.7-1.8,3.4-2.8,5l-4.7,0c1-1.6,2-3.3,2.9-5L164.9,128z M17.6,124l-4.4,0c-0.7-1.6-1.4-3.3-2-5l4.3,0
	C16.1,120.7,16.8,122.4,17.6,124z M168.9,119c-0.6,1.7-1.3,3.4-2,5l-4.4,0c0.8-1.6,1.5-3.3,2.1-5L168.9,119z M14,115l-4.2,0
	c-0.5-1.6-1-3.3-1.4-5l4.1,0C13,111.7,13.4,113.4,14,115z M171.6,110c-0.4,1.7-0.9,3.4-1.4,5l-4.2,0c0.5-1.6,1-3.3,1.5-5L171.6,110z
	 M11.6,106l-4.1,0c-0.3-1.7-0.6-3.3-0.8-5l4,0C11,102.7,11.3,104.4,11.6,106z M173.3,101c-0.2,1.7-0.5,3.4-0.8,5l-4.1,0
	c0.3-1.6,0.6-3.3,0.9-5L173.3,101z M10.3,97l-4,0c-0.1-1.7-0.2-3.3-0.3-5l4,0C10.1,93.7,10.2,95.3,10.3,97z M174,92
	c0,1.7-0.1,3.3-0.3,5l-4,0c0.1-1.7,0.2-3.3,0.3-5L174,92z M10,88l-4,0c0-1.7,0.1-3.3,0.3-5l4,0C10.2,84.7,10.1,86.3,10,88z
	 M173.7,83c0.1,1.7,0.2,3.3,0.3,5l-4,0c0-1.7-0.1-3.3-0.3-5L173.7,83z M10.8,79l-4,0c0.2-1.7,0.5-3.4,0.8-5l4.1,0
	C11.3,75.6,11,77.3,10.8,79z M172.5,74c0.3,1.7,0.6,3.3,0.8,5l-4,0c-0.2-1.7-0.5-3.4-0.9-5L172.5,74z M12.5,70l-4.1,0
	c0.4-1.7,0.9-3.4,1.4-5l4.2,0C13.4,66.6,13,68.3,12.5,70z M170.2,65c0.5,1.6,1,3.3,1.4,5l-4.1,0c-0.4-1.7-0.9-3.4-1.5-5L170.2,65z"
	/>
</svg>
