<?xml version="1.0" encoding="utf-8"?>
<!-- Generator: Adobe Illustrator 28.1.0, SVG Export Plug-In . SVG Version: 6.00 Build 0)  -->
<svg version="1.1" id="Layer_1" xmlns="http://www.w3.org/2000/svg" xmlns:xlink="http://www.w3.org/1999/xlink" x="0px" y="0px"
	 viewBox="0 0 180 180" style="enable-background:new 0 0 180 180;" xml:space="preserve">
<style type="text/css">
	.st0{fill-rule:evenodd;clip-rule:evenodd;}
</style>
<path id="Combined-Shape" class="st0" d="M121,155c-4.5,2.1-9.2,3.8-14.1,5H73.1c-4.9-1.2-9.6-2.9-14.1-5L121,155z M67.5,151
	l-15.8,0c-2.4-1.5-4.8-3.2-7-5l12.2,0C60.3,148,63.8,149.6,67.5,151z M135.3,146c-2.2,1.8-4.6,3.5-7,5l-15.8,0c3.7-1.4,7.2-3,10.5-5
	L135.3,146z M144.5,137c-1.5,1.7-3.1,3.4-4.7,5l-10.8,0c2.1-1.6,4-3.2,5.9-5L144.5,137z M51,142l-10.8,0c-1.7-1.6-3.2-3.3-4.7-5
	l9.6,0C47,138.8,48.9,140.5,51,142z M41.3,133l-9,0c-1.2-1.6-2.3-3.3-3.4-5l8.4,0C38.5,129.7,39.8,131.4,41.3,133z M151.2,128
	c-1.1,1.7-2.2,3.4-3.4,5l-9,0c1.4-1.6,2.7-3.3,4-5L151.2,128z M34.6,124l-8.1,0c-0.9-1.6-1.7-3.3-2.4-5l7.7,0
	C32.7,120.7,33.6,122.4,34.6,124z M155.9,119c-0.7,1.7-1.6,3.4-2.4,5l-8.1,0c1-1.6,1.9-3.3,2.8-5L155.9,119z M30,115l-7.5,0
	c-0.6-1.6-1.2-3.3-1.6-5l7.3,0C28.7,111.7,29.3,113.4,30,115z M159.2,110c-0.5,1.7-1,3.4-1.6,5l-7.5,0c0.7-1.6,1.3-3.3,1.8-5
	L159.2,110z M27,106l-7.2,0c-0.4-1.6-0.7-3.3-0.9-5l7.1,0C26.2,102.7,26.6,104.4,27,106z M161.2,101c-0.3,1.7-0.6,3.4-0.9,5l-7.2,0
	c0.4-1.6,0.8-3.3,1.1-5L161.2,101z M25.4,97l-7,0c-0.2-1.7-0.3-3.3-0.3-5l7,0C25.1,93.7,25.2,95.4,25.4,97z M162,92
	c0,1.7-0.1,3.3-0.3,5l-7,0c0.2-1.6,0.3-3.3,0.3-5L162,92z M25,88l-7,0c0-1.7,0.1-3.3,0.3-5l7,0C25.2,84.6,25.1,86.3,25,88z
	 M161.7,83c0.2,1.7,0.3,3.3,0.3,5l-7,0c-0.1-1.7-0.2-3.4-0.3-5L161.7,83z M25.9,79l-7.1,0c0.3-1.7,0.6-3.4,0.9-5l7.2,0
	C26.6,75.6,26.2,77.3,25.9,79z M160.2,74c0.4,1.6,0.7,3.3,0.9,5l-7.1,0c-0.3-1.7-0.6-3.4-1.1-5L160.2,74z M28.1,70l-7.3,0
	c0.5-1.7,1-3.4,1.6-5l7.5,0C29.3,66.6,28.7,68.3,28.1,70z M157.5,65c0.6,1.6,1.2,3.3,1.6,5l-7.3,0c-0.5-1.7-1.2-3.4-1.8-5L157.5,65z
	 M31.8,61l-7.7,0c0.7-1.7,1.6-3.4,2.4-5l8.1,0C33.6,57.6,32.7,59.3,31.8,61z M153.5,56c0.9,1.6,1.7,3.3,2.4,5l-7.7,0
	c-0.9-1.7-1.8-3.4-2.8-5L153.5,56z M37.3,52l-8.4,0c1.1-1.7,2.2-3.4,3.4-5l9,0C39.8,48.6,38.5,50.3,37.3,52z M147.8,47
	c1.2,1.6,2.3,3.3,3.4,5l-8.4,0c-1.3-1.7-2.6-3.4-4-5L147.8,47z M40.2,38L51,38c-2.1,1.6-4,3.2-5.9,5l-9.6,0
	C37,41.3,38.5,39.6,40.2,38z M129,38l10.8,0c1.7,1.6,3.2,3.3,4.7,5l-9.6,0C133,41.2,131.1,39.5,129,38z M57,34l-12.2,0
	c2.2-1.8,4.6-3.5,7-5l15.8,0C63.8,30.4,60.3,32,57,34z M128.3,29c2.4,1.5,4.8,3.2,7,5L123,34c-3.3-2-6.8-3.6-10.5-5L128.3,29z
	 M106.9,20c4.9,1.2,9.6,2.9,14.1,5l-62,0c4.5-2.1,9.2-3.8,14.1-5H106.9z"/>
</svg>
